<svg width="24" height="21" viewBox="0 0 24 21" fill="none" xmlns="http://www.w3.org/2000/svg">
<path d="M23.7224 16.2357L21.7165 4.5812C21.2617 2.29706 20.5357 0.562012 17.1987 0.562012H6.62279C3.2344 0.562012 2.5598 2.29706 2.10493 4.5812L0.102698 16.2357C-0.256677 18.1672 0.330131 19.703 1.81589 20.3008C3.30165 20.8986 4.46654 19.9787 5.29721 18.1842L6.08886 16.4565C6.15742 16.307 6.26224 16.1814 6.39167 16.0937C6.52109 16.0059 6.67005 15.9595 6.82199 15.9595H17.0015C17.1535 15.9595 17.3024 16.0059 17.4319 16.0937C17.5613 16.1814 17.6661 16.307 17.7347 16.4565L18.5263 18.1842C19.3549 19.9787 20.5224 20.9014 22.0076 20.3008C23.4929 19.7002 24.0781 18.1672 23.7224 16.2357ZM10.6786 9.61935H8.21431V12.3365H6.57145V9.61935H4.10716V7.80788H6.57145V5.09068H8.21431V7.80788H10.6786V9.61935ZM14.1697 9.84578C13.9666 9.84578 13.7681 9.77938 13.5992 9.65498C13.4304 9.53057 13.2988 9.35375 13.221 9.14688C13.1433 8.94 13.123 8.71236 13.1626 8.49274C13.2022 8.27312 13.3 8.07139 13.4436 7.91305C13.5872 7.75471 13.7702 7.64689 13.9693 7.6032C14.1685 7.55952 14.375 7.58194 14.5626 7.66763C14.7502 7.75332 14.9106 7.89843 15.0234 8.08462C15.1362 8.2708 15.1965 8.48969 15.1965 8.71361C15.1965 9.01388 15.0883 9.30185 14.8957 9.51418C14.7032 9.7265 14.442 9.84578 14.1697 9.84578ZM16.4286 12.3365C16.2255 12.3365 16.027 12.2701 15.8581 12.1457C15.6893 12.0213 15.5577 11.8445 15.48 11.6376C15.4023 11.4308 15.3819 11.2031 15.4215 10.9835C15.4612 10.7639 15.5589 10.5622 15.7025 10.4038C15.8461 10.2455 16.0291 10.1377 16.2283 10.094C16.4275 10.0503 16.6339 10.0727 16.8215 10.1584C17.0091 10.2441 17.1695 10.3892 17.2823 10.5754C17.3952 10.7616 17.4554 10.9805 17.4554 11.2044C17.4554 11.5047 17.3472 11.7926 17.1546 12.0049C16.9621 12.2173 16.7009 12.3365 16.4286 12.3365ZM16.4286 7.35501C16.2255 7.35501 16.027 7.28861 15.8581 7.16421C15.6893 7.0398 15.5577 6.86298 15.48 6.65611C15.4023 6.44923 15.3819 6.22159 15.4215 6.00197C15.4612 5.78235 15.5589 5.58062 15.7025 5.42228C15.8461 5.26395 16.0291 5.15612 16.2283 5.11243C16.4275 5.06875 16.6339 5.09117 16.8215 5.17686C17.0091 5.26255 17.1695 5.40766 17.2823 5.59385C17.3952 5.78003 17.4554 5.99893 17.4554 6.22285C17.4554 6.52312 17.3472 6.81109 17.1546 7.02341C16.9621 7.23573 16.7009 7.35501 16.4286 7.35501ZM18.6875 9.84578C18.4844 9.84578 18.2859 9.77938 18.1171 9.65498C17.9482 9.53057 17.8166 9.35375 17.7389 9.14688C17.6612 8.94 17.6408 8.71236 17.6805 8.49274C17.7201 8.27312 17.8179 8.07139 17.9615 7.91305C18.1051 7.75471 18.288 7.64689 18.4872 7.6032C18.6864 7.55952 18.8928 7.58194 19.0805 7.66763C19.2681 7.75332 19.4284 7.89843 19.5413 8.08462C19.6541 8.2708 19.7143 8.48969 19.7143 8.71361C19.7143 9.01388 19.6061 9.30185 19.4136 9.51418C19.221 9.7265 18.9598 9.84578 18.6875 9.84578Z" fill="white"/>
</svg>
