<svg width="15" height="21" viewBox="0 0 15 21" fill="none" xmlns="http://www.w3.org/2000/svg">
<path d="M0 0.988695V19.8432C0 19.9847 0.050797 20.1204 0.141216 20.2205C0.231636 20.3206 0.354271 20.3768 0.482143 20.3768H13.6607C13.7886 20.3768 13.9112 20.3206 14.0016 20.2205C14.0921 20.1204 14.1429 19.9847 14.1429 19.8432V0.988695C14.1429 0.847171 14.0921 0.711444 14.0016 0.611371C13.9112 0.511298 13.7886 0.455078 13.6607 0.455078H0.482143C0.354271 0.455078 0.231636 0.511298 0.141216 0.611371C0.050797 0.711444 0 0.847171 0 0.988695ZM7.71429 12.5504H3.21429V11.1274H7.71429V12.5504ZM10.9286 8.99295H3.21429V7.56997H10.9286V8.99295ZM10.9286 5.43551H3.21429V4.01253H10.9286V5.43551Z" fill="white"/>
</svg>
