<svg width="17" height="21" viewBox="0 0 17 21" fill="none" xmlns="http://www.w3.org/2000/svg">
<path d="M16.2063 5.82668H12.7448V5.29307C12.7438 3.94742 12.2783 2.65533 11.4473 1.69189C10.6163 0.72845 9.48543 0.169759 8.2955 0.134766H8.06814C6.87821 0.169759 5.74736 0.72845 4.91635 1.69189C4.08534 2.65533 3.61981 3.94742 3.61888 5.29307V5.82668H0.157343C0.115613 5.82668 0.0755921 5.84542 0.0460846 5.87878C0.0165772 5.91214 0 5.95738 0 6.00455V19.345C0 19.5337 0.0663085 19.7147 0.184338 19.8481C0.302368 19.9815 0.462451 20.0565 0.629371 20.0565H15.7343C15.9012 20.0565 16.0613 19.9815 16.1793 19.8481C16.2973 19.7147 16.3636 19.5337 16.3636 19.345V6.00455C16.3636 5.95738 16.3471 5.91214 16.3176 5.87878C16.288 5.84542 16.248 5.82668 16.2063 5.82668ZM5.19231 5.33753C5.19231 3.47699 6.50651 1.93306 8.15232 1.91349C8.54727 1.90956 8.939 1.99404 9.30492 2.16208C9.67085 2.33011 10.0037 2.57837 10.2844 2.89254C10.565 3.20671 10.7879 3.58057 10.9401 3.99257C11.0924 4.40457 11.1709 4.84657 11.1713 5.29307V5.82668H5.19231V5.33753ZM12.5874 9.38413C12.5874 10.705 12.1233 11.9718 11.297 12.9058C10.4708 13.8398 9.35025 14.3646 8.18182 14.3646C7.01338 14.3646 5.8928 13.8398 5.06659 12.9058C4.24038 11.9718 3.77622 10.705 3.77622 9.38413V7.96115H5.03497V9.38413C5.03497 10.3276 5.36651 11.2325 5.95666 11.8996C6.54681 12.5668 7.34722 12.9416 8.18182 12.9416C9.01642 12.9416 9.81683 12.5668 10.407 11.8996C10.9971 11.2325 11.3287 10.3276 11.3287 9.38413V7.96115H12.5874V9.38413Z" fill="white"/>
</svg>
